<svg xmlns="http://www.w3.org/2000/svg" xmlns:xlink="http://www.w3.org/1999/xlink" width="500" zoomAndPan="magnify" viewBox="0 0 375 374.999991" height="500" preserveAspectRatio="xMidYMid meet" version="1.0"><defs><g/><clipPath id="e6fa51c51f"><path d="M 51.730469 56.171875 L 314.480469 56.171875 L 314.480469 318.921875 L 51.730469 318.921875 Z M 51.730469 56.171875 " clip-rule="nonzero"/></clipPath><clipPath id="f9a3fe2764"><path d="M 183.105469 56.171875 C 110.550781 56.171875 51.730469 114.988281 51.730469 187.546875 C 51.730469 260.101562 110.550781 318.921875 183.105469 318.921875 C 255.664062 318.921875 314.480469 260.101562 314.480469 187.546875 C 314.480469 114.988281 255.664062 56.171875 183.105469 56.171875 Z M 183.105469 56.171875 " clip-rule="nonzero"/></clipPath><clipPath id="f8fa25182c"><path d="M 89.914062 94.355469 L 276.296875 94.355469 L 276.296875 280.738281 L 89.914062 280.738281 Z M 89.914062 94.355469 " clip-rule="nonzero"/></clipPath><clipPath id="adcccc4585"><path d="M 183.105469 94.355469 C 131.636719 94.355469 89.914062 136.078125 89.914062 187.546875 C 89.914062 239.015625 131.636719 280.738281 183.105469 280.738281 C 234.574219 280.738281 276.296875 239.015625 276.296875 187.546875 C 276.296875 136.078125 234.574219 94.355469 183.105469 94.355469 Z M 183.105469 94.355469 " clip-rule="nonzero"/></clipPath><clipPath id="ffff539816"><path d="M 108.105469 132.890625 L 258.105469 132.890625 L 258.105469 242.390625 L 108.105469 242.390625 Z M 108.105469 132.890625 " clip-rule="nonzero"/></clipPath></defs><g clip-path="url(#e6fa51c51f)"><g clip-path="url(#f9a3fe2764)"><path fill="#0a2b56" d="M 51.730469 56.171875 L 314.480469 56.171875 L 314.480469 318.921875 L 51.730469 318.921875 Z M 51.730469 56.171875 " fill-opacity="1" fill-rule="nonzero"/></g></g><g clip-path="url(#f8fa25182c)"><g clip-path="url(#adcccc4585)"><path fill="#ffffff" d="M 89.914062 94.355469 L 276.296875 94.355469 L 276.296875 280.738281 L 89.914062 280.738281 Z M 89.914062 94.355469 " fill-opacity="1" fill-rule="nonzero"/></g></g><g clip-path="url(#ffff539816)"><path fill="#0a2b56" d="M 257.128906 217.570312 C 252.574219 216.355469 246.6875 214.941406 245.855469 209.449219 C 244.910156 204.246094 245.25 198.210938 249.160156 194.269531 C 249.140625 193.871094 248.902344 193.613281 248.464844 193.695312 C 243.933594 193.367188 239.394531 193.121094 234.875 192.667969 C 233.554688 192.535156 232.535156 192.84375 231.453125 193.449219 C 219.921875 199.890625 208.382812 206.320312 196.835938 212.746094 C 196.53125 212.914062 196.136719 213.125 195.835938 213.066406 C 194.773438 212.777344 193.578125 212.640625 192.636719 212.089844 C 209.054688 204.304688 224.972656 194.921875 240.933594 186.128906 C 237.667969 184.609375 232.464844 184.757812 231.335938 180.625 C 230.289062 176.429688 230.027344 172.28125 232.644531 168.464844 C 233.769531 167.457031 228.597656 167.679688 228.019531 167.449219 C 222.035156 166.984375 216.054688 166.5 210.070312 166.054688 C 208.140625 165.910156 208.347656 158.207031 208.820312 156.386719 C 209.085938 155.378906 209.996094 155.390625 210.675781 155.03125 C 219.441406 151.90625 228.433594 149.230469 237.128906 146.035156 C 227.875 143.574219 218.132812 142.261719 208.867188 139.882812 C 219.933594 139.152344 232.980469 139.148438 241.683594 147.148438 C 242.09375 147.796875 243.394531 147.71875 242.96875 146.769531 C 233.695312 136.199219 217.429688 137.445312 204.660156 138.613281 C 196.09375 139.800781 187.28125 140.160156 179.210938 143.554688 C 178.703125 143.761719 178.335938 143.980469 178.199219 144.609375 C 177.535156 148.375 171.941406 146.21875 173.28125 143 C 173.933594 141.25 175.933594 140.660156 177.324219 141.914062 C 178.007812 142.53125 178.558594 142.566406 179.355469 142.277344 C 186.027344 139.9375 193.058594 138.960938 200.042969 138.085938 C 191.394531 136.183594 182.507812 133.800781 173.730469 132.890625 C 152.824219 137.660156 131.621094 142.007812 110.882812 147.082031 C 120.535156 150.1875 130.363281 152.863281 140.078125 155.816406 C 141.050781 156.101562 142.363281 167.652344 141.570312 167.964844 C 133.597656 171.03125 125.570312 173.980469 117.578125 177.011719 C 116.347656 177.34375 116.605469 177.914062 117.742188 178.070312 C 119.539062 178.824219 123.171875 178.042969 123.519531 180.472656 C 123.921875 183.070312 123.859375 185.632812 123.257812 188.199219 C 122.597656 190.550781 118.5 189.769531 116.902344 191.34375 C 120.171875 192.6875 123.871094 193.066406 127.152344 194.359375 C 121.054688 196.640625 114.183594 197.667969 108.183594 200.066406 C 109.890625 201.242188 112.4375 201.34375 114.460938 201.964844 C 117.203125 202.515625 115.828125 210.007812 115.386719 212.082031 C 114.84375 214.328125 109.960938 213.8125 108.113281 215.257812 C 135.078125 224.5625 162.304688 233.242188 189.40625 242.195312 C 212.332031 234.222656 235.351562 226.382812 258.097656 217.949219 C 257.777344 217.820312 257.460938 217.667969 257.128906 217.570312 Z M 219.710938 182.800781 C 212.769531 186.082031 205.363281 190 200.097656 195.46875 C 206.222656 192.195312 212.300781 188.351562 218.78125 185.785156 C 213.195312 188.960938 199.734375 196.621094 200.195312 197.929688 C 206.222656 194.234375 212.921875 191.402344 219.445312 188.875 C 215.269531 191.414062 200.945312 198.085938 200.15625 199.640625 C 203.347656 198.703125 210.257812 195.324219 210.773438 195.496094 C 206.589844 198.273438 201.207031 199.621094 198.011719 203.625 C 197.386719 204.328125 196.894531 205.34375 196.035156 205.746094 C 199.378906 201.425781 199.761719 195.25 196.164062 190.957031 C 195.902344 190.707031 196.003906 190.601562 196.300781 190.464844 C 197.480469 190.039062 198.554688 189.167969 199.789062 188.984375 C 196.515625 191.34375 198.300781 190.914062 199.429688 193.949219 C 205.8125 189.554688 212.566406 184.894531 219.953125 182.589844 C 219.875 182.660156 219.804688 182.753906 219.710938 182.800781 Z M 220.335938 178.988281 C 213.199219 183.214844 206.265625 187.777344 199.019531 191.800781 C 198.675781 191.441406 198.167969 191.003906 198.804688 190.597656 C 206.273438 186.375 213.695312 181.953125 221.394531 178.195312 C 221.042969 178.460938 220.714844 178.761719 220.335938 178.988281 Z M 227.09375 187.394531 C 227.714844 186.597656 229.53125 186.230469 228.914062 184.96875 C 227.425781 181.667969 226.929688 177.691406 228.003906 174.21875 C 228.261719 174.871094 228.0625 175.636719 228.121094 176.335938 C 228.074219 176.339844 228.027344 176.347656 227.980469 176.351562 C 228.488281 179.425781 228.242188 183.015625 230.714844 185.320312 C 231.042969 185.617188 231.167969 185.863281 230.648438 186.105469 C 229.355469 186.621094 228.152344 187.5 226.804688 187.808594 C 226.898438 187.667969 226.96875 187.5 227.09375 187.394531 Z M 124.441406 149.605469 C 124.003906 149.507812 123.5625 149.414062 123.160156 149.195312 C 141.035156 151.730469 158.714844 156.480469 175.097656 164.195312 C 175.695312 164.472656 176.183594 164.515625 176.800781 164.203125 C 192.832031 156.234375 210.132812 150.585938 227.683594 147.546875 C 143.644531 172.285156 207.859375 170.210938 124.441406 149.605469 Z M 207.320312 164.84375 C 193.46875 181.898438 159.273438 180.871094 144.175781 165.980469 C 162.527344 177.917969 189.929688 179.210938 207.320312 164.84375 Z M 130.847656 177.136719 C 149.324219 179.597656 167.6875 182.625 185.785156 187.085938 C 188.078125 187.632812 190.273438 188.464844 192.296875 189.707031 C 192.59375 189.890625 192.816406 190.058594 193.222656 189.691406 C 197.867188 185.3125 203.867188 182.800781 209.28125 179.527344 C 214.960938 176.597656 220.578125 172.902344 226.34375 170.445312 C 216.207031 177.140625 205.058594 182.460938 195.175781 189.558594 C 194.515625 190.125 194.1875 190.679688 194.683594 191.636719 C 195.40625 193.117188 195.675781 194.832031 195.621094 196.480469 C 194.773438 193.421875 193.699219 190.003906 190.261719 189.117188 C 187.75 188.335938 185.25 187.472656 182.679688 186.933594 C 165.277344 183.367188 147.703125 180.660156 130.269531 177.25 C 130.496094 177.203125 130.71875 177.164062 130.847656 177.136719 Z M 125.492188 191.554688 C 125.339844 191.511719 125.191406 191.449219 125.039062 191.402344 C 136.40625 193.148438 147.796875 196.496094 159.214844 197.992188 C 147.601562 194.992188 135.441406 193.089844 123.875 190.257812 C 129.496094 190.175781 167.046875 198.710938 179.960938 200.917969 C 161.566406 196.417969 142.902344 192.734375 124.421875 188.734375 C 126.273438 186.476562 135.140625 189.542969 138.246094 188.980469 C 134.886719 188.304688 131.46875 187.878906 128.085938 187.3125 C 126.621094 186.992188 125.671875 186.839844 124.421875 187.953125 C 124.476562 185.6875 124.921875 183.433594 124.875 181.160156 C 137.339844 183.351562 149.871094 186.015625 162.355469 187.734375 C 154.828125 186.027344 131.71875 181.578125 127.753906 180.792969 C 126.683594 180.421875 125.191406 180.476562 124.464844 179.546875 C 135.359375 181.167969 146.226562 183.3125 157.097656 185.175781 C 164.457031 187.355469 191.199219 188.484375 192.328125 196.617188 C 192.761719 199.675781 192.566406 207.789062 188.414062 207.113281 C 167.390625 202.222656 146.449219 196.765625 125.492188 191.554688 Z M 190.152344 226.253906 C 190.089844 229.132812 189.34375 237.019531 185.011719 235.402344 C 162.644531 228.957031 140.167969 222.542969 117.957031 215.707031 C 130.675781 218.320312 143.429688 222.515625 156.230469 224.765625 C 142.921875 220.898438 129.296875 217.914062 115.960938 214.222656 C 137.433594 217.761719 158.570312 224.644531 179.882812 229.171875 C 159.203125 223.28125 138.285156 217.988281 117.382812 212.921875 C 116.605469 212.757812 116.398438 212.519531 116.597656 211.753906 C 117.183594 209.488281 117.363281 207.203125 117.132812 204.878906 C 117.085938 204.40625 117.285156 204.46875 117.628906 204.546875 C 131.621094 207.484375 145.609375 211.007812 159.625 213.574219 C 146.253906 210.101562 132.738281 207.144531 119.300781 203.941406 C 118.558594 203.660156 117.558594 203.566406 117.078125 202.886719 C 133.53125 205.769531 150.082031 209.726562 166.554688 213.011719 C 173.273438 214.789062 191.742188 216.726562 190.152344 226.253906 Z M 188.46875 215.480469 C 183.027344 212.992188 177.15625 211.851562 171.398438 210.367188 C 174.21875 210.289062 177.167969 211.503906 180.03125 212 C 183.222656 212.785156 186.40625 213.667969 189.191406 215.46875 C 190.4375 216.273438 191.222656 216.222656 192.519531 215.40625 C 208.105469 207.765625 224.695312 201.683594 241.09375 196.019531 C 225.421875 203.296875 209.011719 208.984375 193.523438 216.621094 C 192.589844 217.128906 192.652344 217.210938 193.015625 218.191406 C 193.734375 220.28125 194.332031 222.558594 193.886719 224.757812 C 193.464844 221.105469 192.148438 217.011719 188.46875 215.480469 Z M 200.605469 223.683594 C 209.402344 219.871094 218.398438 216.289062 227.472656 213.273438 C 221.476562 216.039062 203.246094 223.945312 200.230469 225.320312 C 199.785156 225.476562 199.628906 225.300781 199.769531 224.796875 C 199.664062 224.1875 200.097656 223.90625 200.605469 223.683594 Z M 199.941406 223.238281 C 198.792969 223.832031 199.644531 225.605469 199.410156 226.679688 C 209.457031 222.566406 219.863281 218.886719 230.332031 216.183594 C 220.355469 220.164062 209.914062 223.191406 200.136719 227.722656 C 199.695312 227.769531 199.609375 228.195312 199.402344 228.515625 C 204.335938 227.589844 209.0625 225.355469 214.011719 224.453125 C 208.679688 227.085938 202.46875 228.1875 197.542969 231.523438 C 196.175781 232.621094 195.121094 234.160156 193.617188 235.050781 C 194.179688 233.839844 195.253906 232.925781 196.035156 231.84375 C 198.773438 227.632812 197.617188 221.601562 194.902344 217.644531 C 197.042969 217.285156 198.992188 216.058594 201.105469 215.730469 C 200.445312 216.457031 196.449219 217.398438 197.191406 218.417969 C 199.167969 222.992188 197.808594 221.015625 201.699219 220.09375 C 201.105469 220.894531 199.878906 221.066406 199.269531 221.871094 C 209.417969 217.230469 219.667969 211.605469 230.660156 209.417969 C 227.929688 210.472656 207.265625 219.234375 199.941406 223.238281 Z M 199.042969 219.195312 C 198.714844 219.324219 198.371094 219.5 198.101562 219.039062 C 197.210938 217.621094 200.570312 217.332031 201.398438 216.746094 C 212.441406 212.515625 223.328125 207.765625 234.527344 203.972656 C 234.535156 204.003906 234.546875 204.035156 234.554688 204.070312 C 232.4375 205.148438 208.777344 215.304688 199.042969 219.195312 Z M 244.695312 217.722656 C 227.515625 224.238281 210.582031 232.140625 193.351562 238.171875 C 209.191406 230.761719 225.429688 224.007812 241.574219 217.21875 C 242.746094 216.703125 242.710938 216.664062 242.234375 215.515625 C 240.300781 210.667969 239.90625 205.203125 242.121094 200.417969 C 241.648438 205.902344 241.210938 212.117188 245 216.589844 C 245.617188 217.382812 245.679688 217.335938 244.695312 217.722656 Z M 244.695312 217.722656 " fill-opacity="1" fill-rule="nonzero"/></g><path fill="#0a2b56" d="M 246.351562 156.832031 C 240.007812 155.289062 241.601562 163.28125 241.464844 167.089844 C 241.496094 167.089844 241.53125 167.089844 241.5625 167.089844 C 241.496094 170.777344 242.003906 174.449219 242.230469 178.128906 C 242.253906 178.429688 242.183594 178.882812 242.65625 178.816406 C 243.4375 177.597656 242.464844 175.710938 242.792969 174.296875 C 243.550781 175.691406 243.050781 177.683594 244.269531 178.769531 C 244.988281 177.890625 244.332031 176.78125 244.515625 175.773438 C 244.796875 176.496094 244.855469 177.289062 245.105469 178.019531 C 246.097656 179.40625 246.214844 176.945312 246.222656 176.292969 C 246.480469 176.902344 246.394531 177.773438 246.941406 178.191406 C 247.382812 177.683594 246.992188 176.878906 247.1875 176.253906 C 247.613281 176.960938 247.535156 177.898438 248.082031 178.527344 C 248.792969 177.925781 248.140625 176.941406 248.394531 176.164062 C 248.757812 176.636719 248.828125 177.273438 249.113281 177.792969 C 250.304688 178.90625 250.027344 176.265625 250 175.640625 C 250.285156 176.261719 250.34375 177.03125 251.035156 177.335938 C 251.222656 176.164062 250.105469 175.070312 250.394531 173.941406 C 251.097656 175.109375 251.1875 176.734375 252.332031 177.558594 C 253.226562 176.058594 251.542969 174.359375 251.832031 172.761719 C 252.566406 174.066406 252.695312 175.71875 253.773438 176.804688 C 252.984375 171.324219 250.445312 165.953125 248.992188 160.535156 C 248.464844 159.132812 247.882812 157.398438 246.351562 156.832031 Z M 246.351562 156.832031 " fill-opacity="1" fill-rule="nonzero"/><path fill="#0a2b56" d="M 239.589844 152.246094 C 239.523438 157.675781 248.214844 157.390625 248.027344 152.332031 C 248.066406 146.707031 239.601562 146.621094 239.589844 152.246094 Z M 239.589844 152.246094 " fill-opacity="1" fill-rule="nonzero"/><path fill="#0a2b56" d="M 123.585938 211.753906 C 121.648438 211.699219 117.4375 209.445312 116.886719 212.382812 C 117.917969 211.816406 118.925781 211.503906 120.082031 211.789062 C 124.5 212.382812 128.917969 213.554688 133.335938 213.839844 C 130.125 213.011719 126.832031 212.464844 123.585938 211.753906 Z M 123.585938 211.753906 " fill-opacity="1" fill-rule="nonzero"/><g fill="#ffffff" fill-opacity="1"><g transform="translate(125.517981, 105.098772)"><g><path d="M 18.75 -8.78125 L 14.09375 -6.59375 L 0.828125 -14.734375 L 6.328125 -2.96875 L 1.6875 -0.78125 L -7.25 -19.859375 L -2.609375 -22.046875 L 10.6875 -13.859375 L 5.15625 -25.671875 L 9.8125 -27.859375 Z M 18.75 -8.78125 "/></g></g></g><g fill="#ffffff" fill-opacity="1"><g transform="translate(144.204616, 96.18111)"><g><path d="M 13.546875 -7.375 L 5.9375 -5.390625 L 5.65625 -1.46875 L 0.46875 -0.125 L 2.5 -22.421875 L 8.265625 -23.921875 L 20.953125 -5.46875 L 15.703125 -4.109375 Z M 11.28125 -10.890625 L 6.796875 -17.6875 L 6.234375 -9.578125 Z M 11.28125 -10.890625 "/></g></g></g><g fill="#ffffff" fill-opacity="1"><g transform="translate(163.94771, 91.036859)"><g><path d="M 9.46875 -0.640625 C 7.925781 -0.503906 6.523438 -0.628906 5.265625 -1.015625 C 4.015625 -1.410156 2.976562 -2.0625 2.15625 -2.96875 C 1.34375 -3.882812 0.859375 -5.019531 0.703125 -6.375 L 6.125 -6.859375 C 6.28125 -6.097656 6.601562 -5.535156 7.09375 -5.171875 C 7.59375 -4.804688 8.210938 -4.65625 8.953125 -4.71875 C 9.703125 -4.789062 10.28125 -5.019531 10.6875 -5.40625 C 11.101562 -5.800781 11.28125 -6.300781 11.21875 -6.90625 C 11.175781 -7.425781 10.960938 -7.835938 10.578125 -8.140625 C 10.191406 -8.453125 9.734375 -8.695312 9.203125 -8.875 C 8.679688 -9.050781 7.941406 -9.238281 6.984375 -9.4375 C 5.597656 -9.726562 4.457031 -10.039062 3.5625 -10.375 C 2.664062 -10.71875 1.867188 -11.269531 1.171875 -12.03125 C 0.484375 -12.800781 0.0820312 -13.84375 -0.03125 -15.15625 C -0.207031 -17.101562 0.359375 -18.691406 1.671875 -19.921875 C 2.992188 -21.148438 4.789062 -21.867188 7.0625 -22.078125 C 9.375 -22.285156 11.285156 -21.898438 12.796875 -20.921875 C 14.304688 -19.941406 15.203125 -18.472656 15.484375 -16.515625 L 9.953125 -16.015625 C 9.847656 -16.691406 9.546875 -17.203125 9.046875 -17.546875 C 8.554688 -17.898438 7.953125 -18.039062 7.234375 -17.96875 C 6.617188 -17.914062 6.132812 -17.707031 5.78125 -17.34375 C 5.4375 -16.988281 5.289062 -16.5 5.34375 -15.875 C 5.40625 -15.195312 5.773438 -14.695312 6.453125 -14.375 C 7.128906 -14.0625 8.15625 -13.742188 9.53125 -13.421875 C 10.9375 -13.078125 12.078125 -12.734375 12.953125 -12.390625 C 13.835938 -12.054688 14.625 -11.515625 15.3125 -10.765625 C 16.007812 -10.023438 16.414062 -9.023438 16.53125 -7.765625 C 16.632812 -6.578125 16.425781 -5.46875 15.90625 -4.4375 C 15.382812 -3.414062 14.570312 -2.5625 13.46875 -1.875 C 12.363281 -1.195312 11.03125 -0.785156 9.46875 -0.640625 Z M 9.46875 -0.640625 "/></g></g></g><g fill="#ffffff" fill-opacity="1"><g transform="translate(180.623111, 89.245727)"><g><path d="M 15.203125 -2.5625 L 7.375 -3.15625 L 5.828125 0.4375 L 0.484375 0.03125 L 9.671875 -20.390625 L 15.609375 -19.9375 L 21.59375 1.640625 L 16.1875 1.234375 Z M 14.1875 -6.640625 L 12.1875 -14.5 L 9 -7.03125 Z M 14.1875 -6.640625 "/></g></g></g><g fill="#ffffff" fill-opacity="1"><g transform="translate(200.856208, 90.632184)"><g><path d="M 24.78125 -15.28125 L 19.4375 5.09375 L 14.484375 3.796875 L 16.6875 -4.59375 L 8.953125 -6.625 L 6.75 1.765625 L 1.796875 0.46875 L 7.140625 -19.90625 L 12.09375 -18.609375 L 10 -10.625 L 17.734375 -8.59375 L 19.828125 -16.578125 Z M 24.78125 -15.28125 "/></g></g></g><g fill="#ffffff" fill-opacity="1"><g transform="translate(220.336838, 95.530729)"><g><path d="M 18.75 8.78125 L 14.09375 6.59375 L 11.828125 -8.796875 L 6.328125 2.96875 L 1.6875 0.78125 L 10.625 -18.296875 L 15.265625 -16.109375 L 17.5 -0.671875 L 23.03125 -12.484375 L 27.6875 -10.296875 Z M 18.75 8.78125 "/></g></g></g><g fill="#ffffff" fill-opacity="1"><g transform="translate(106.016859, 286.07836)"><g><path d="M 14.78125 4.421875 L 8.015625 0.421875 L 5.03125 2.96875 L 0.421875 0.25 L 17.6875 -14 L 22.8125 -10.96875 L 18.640625 11.03125 L 13.96875 8.265625 Z M 15.65625 0.34375 L 17.34375 -7.625 L 11.1875 -2.3125 Z M 15.65625 0.34375 "/></g></g></g><g fill="#ffffff" fill-opacity="1"><g transform="translate(126.823906, 298.213401)"><g><path d="M 4.546875 -9.578125 C 5.265625 -11.535156 6.328125 -13.125 7.734375 -14.34375 C 9.140625 -15.5625 10.753906 -16.320312 12.578125 -16.625 C 14.398438 -16.925781 16.269531 -16.726562 18.1875 -16.03125 C 20.53125 -15.164062 22.3125 -13.8125 23.53125 -11.96875 C 24.757812 -10.125 25.257812 -8.023438 25.03125 -5.671875 L 19.75 -7.609375 C 19.65625 -8.578125 19.320312 -9.410156 18.75 -10.109375 C 18.1875 -10.804688 17.441406 -11.320312 16.515625 -11.65625 C 15.035156 -12.195312 13.644531 -12.117188 12.34375 -11.421875 C 11.039062 -10.722656 10.078125 -9.515625 9.453125 -7.796875 C 8.816406 -6.066406 8.769531 -4.515625 9.3125 -3.140625 C 9.863281 -1.773438 10.878906 -0.820312 12.359375 -0.28125 C 13.285156 0.0507812 14.1875 0.140625 15.0625 -0.015625 C 15.945312 -0.179688 16.738281 -0.609375 17.4375 -1.296875 L 22.71875 0.640625 C 21.382812 2.578125 19.65625 3.851562 17.53125 4.46875 C 15.40625 5.09375 13.171875 4.972656 10.828125 4.109375 C 8.910156 3.410156 7.351562 2.359375 6.15625 0.953125 C 4.957031 -0.453125 4.207031 -2.066406 3.90625 -3.890625 C 3.613281 -5.722656 3.828125 -7.617188 4.546875 -9.578125 Z M 4.546875 -9.578125 "/></g></g></g><g fill="#ffffff" fill-opacity="1"><g transform="translate(150.220209, 306.531753)"><g><path d="M 15.375 -1.1875 L 7.625 -2.5 L 5.765625 0.96875 L 0.484375 0.078125 L 11.46875 -19.421875 L 17.34375 -18.4375 L 21.359375 3.59375 L 16.015625 2.6875 Z M 14.75 -5.3125 L 13.4375 -13.34375 L 9.625 -6.171875 Z M 14.75 -5.3125 "/></g></g></g><g fill="#ffffff" fill-opacity="1"><g transform="translate(173.952555, 310.330727)"><g><path d="M 9.46875 -21.1875 C 11.6875 -21.21875 13.632812 -20.800781 15.3125 -19.9375 C 16.988281 -19.082031 18.289062 -17.863281 19.21875 -16.28125 C 20.15625 -14.707031 20.632812 -12.878906 20.65625 -10.796875 C 20.6875 -8.734375 20.253906 -6.894531 19.359375 -5.28125 C 18.472656 -3.675781 17.195312 -2.421875 15.53125 -1.515625 C 13.875 -0.617188 11.945312 -0.15625 9.75 -0.125 L 1.859375 -0.03125 L 1.578125 -21.09375 Z M 9.359375 -4.5625 C 11.296875 -4.582031 12.796875 -5.128906 13.859375 -6.203125 C 14.929688 -7.285156 15.453125 -8.796875 15.421875 -10.734375 C 15.398438 -12.671875 14.84375 -14.171875 13.75 -15.234375 C 12.65625 -16.304688 11.140625 -16.832031 9.203125 -16.8125 L 6.765625 -16.78125 L 6.921875 -4.53125 Z M 9.359375 -4.5625 "/></g></g></g><g fill="#ffffff" fill-opacity="1"><g transform="translate(197.395047, 309.680896)"><g><path d="M 4.046875 -17.890625 L 4.765625 -13.671875 L 11.53125 -14.828125 L 12.1875 -10.9375 L 5.421875 -9.78125 L 6.203125 -5.21875 L 13.875 -6.515625 L 14.5625 -2.46875 L 1.828125 -0.3125 L -1.703125 -21.078125 L 11.03125 -23.234375 L 11.71875 -19.1875 Z M 4.046875 -17.890625 "/></g></g></g><g fill="#ffffff" fill-opacity="1"><g transform="translate(215.388441, 306.956306)"><g><path d="M 17 -28.546875 L 24.171875 -8.75 L 19.34375 -7 L 15.046875 -18.875 L 14.921875 -5.40625 L 11.03125 -4 L 2.25 -14.28125 L 6.5625 -2.375 L 1.75 -0.640625 L -5.421875 -20.4375 L 0.28125 -22.5 L 10.796875 -10.796875 L 11.34375 -26.5 Z M 17 -28.546875 "/></g></g></g><g fill="#ffffff" fill-opacity="1"><g transform="translate(243.030574, 296.348478)"><g><path d="M 6.1875 -28.328125 L 7.21875 -12.46875 L 10.8125 -6.515625 L 6.421875 -3.875 L 2.828125 -9.828125 L -10.703125 -18.15625 L -5.703125 -21.15625 L 2.34375 -15.703125 L 1.25 -25.359375 Z M 6.1875 -28.328125 "/></g></g></g></svg>